<svg xmlns="http://www.w3.org/2000/svg" width="75" height="79.37" viewBox="0 0 75 79.37"><defs><style>.a{fill:#fff;}</style></defs><g transform="translate(-1202.634 -1400.206)"><path class="a" d="M1241.107,1437.3l1.881-2.678,9.1-12.952c.971-1.382,1.943-2.764,2.906-4.152a.735.735,0,0,1,.677-.337q10.674.009,21.347.005c.473,0,.617.137.617.61q0,6.769,0,13.536c0,.475-.134.6-.621.6h-4V1464.8c.123.006.252.019.382.019,1.214,0,2.427,0,3.641,0,.46,0,.6.135.6.592q0,6.767,0,13.536c0,.487-.128.616-.605.616q-9.242,0-18.484,0c-.535,0-.649-.123-.649-.669q0-7.562,0-15.123v-.3h-.375q-7.126,0-14.252.007a1.2,1.2,0,0,1-1.115-.578c-.447-.682-.936-1.335-1.427-2.029-.542.768-1.061,1.5-1.578,2.24q-3.957,5.637-7.912,11.275c-1.138,1.62-2.282,3.235-3.414,4.859a.682.682,0,0,1-.621.322q-7.375-.008-14.75,0c-.22,0-.439,0-.568-.233s-.012-.415.116-.6l9.7-13.817,10.775-15.341c.041-.059.078-.12.131-.2l-9.5-13.454-.071.009c0,.092-.012.183-.012.276q0,11.421,0,22.841c0,1.151,0,2.3,0,3.454a.875.875,0,0,1-.986.97h-18.391a.881.881,0,0,1-1.008-.981q0-7,0-14a.886.886,0,0,1,1.009-.986c1.119,0,2.239,0,3.385,0v-31.321h-.455c-.965,0-1.929,0-2.894,0-.727,0-1.043-.315-1.044-1.04q0-6.955,0-13.91a.9.9,0,0,1,1.036-1.022l18.3,0c.722,0,1.055.322,1.055,1.035q0,13.1,0,26.2v.354c.1-.109.156-.157.2-.215q4.516-6.441,9.03-12.883,4.909-7,9.819-14a1.091,1.091,0,0,1,.973-.5q7.282.008,14.563,0a.92.92,0,0,1,.912.471.947.947,0,0,1-.141,1.045q-4.816,6.856-9.625,13.718l-10.586,15.1c-.262.373-.535.739-.781,1.122a.386.386,0,0,0-.021.342q1.816,2.619,3.654,5.222A.568.568,0,0,0,1241.107,1437.3Zm16.774-.809c-.093.108-.152.166-.2.233q-4.189,5.964-8.382,11.927a.3.3,0,0,0,0,.407q4.218,6,8.427,12.011a.762.762,0,0,1,.064.168l.086-.072Z" transform="translate(0 0)"/></g></svg>