<svg xmlns="http://www.w3.org/2000/svg" width="52.369" height="47.553" viewBox="0 0 52.369 47.553"><defs><style>.a{fill:#00dbff;}</style></defs><g transform="translate(-14.68 -23.374)"><path class="a" d="M168.116,151.165h-5.373a.543.543,0,1,0,0,1.085h5.373a.543.543,0,1,0,0-1.085Z" transform="translate(-131.513 -113.925)"/><path class="a" d="M77.617,187.255h14.61a.543.543,0,0,0,0-1.085H77.617a.543.543,0,0,0,0,1.085Z" transform="translate(-55.624 -145.132)"/><path class="a" d="M77.617,204.758h14.61a.543.543,0,1,0,0-1.085H77.617a.543.543,0,1,0,0,1.085Z" transform="translate(-55.624 -160.736)"/><path class="a" d="M92.769,239.128a.543.543,0,0,0-.543-.543H77.617a.543.543,0,0,0,0,1.085h14.61A.543.543,0,0,0,92.769,239.128Z" transform="translate(-55.624 -191.859)"/><path class="a" d="M48.868,108.7a.543.543,0,0,0,1.085,0,1.8,1.8,0,0,0-.516-1.26,1.8,1.8,0,1,0-2.574,0,1.8,1.8,0,0,0-.516,1.26.543.543,0,0,0,1.085,0,.718.718,0,0,1,1.435,0Zm-1.435-2.52a.718.718,0,1,1,.718.718A.718.718,0,0,1,47.433,106.175Z" transform="translate(-28.232 -72.21)"/><path class="a" d="M296.612,98.56h5.373a.543.543,0,0,0,0-1.085h-5.373a.543.543,0,1,0,0,1.085Z" transform="translate(-250.857 -66.061)"/><path class="a" d="M311.222,132.48h-14.61a.543.543,0,0,0,0,1.085h14.61a.543.543,0,0,0,0-1.085Z" transform="translate(-250.858 -97.267)"/><path class="a" d="M311.222,149.983h-14.61a.543.543,0,0,0,0,1.085h14.61a.543.543,0,0,0,0-1.085Z" transform="translate(-250.858 -112.871)"/><path class="a" d="M434.23,49.235a1.8,1.8,0,0,0-1.287,3.063,1.8,1.8,0,0,0-.516,1.26.542.542,0,1,0,1.085,0,.718.718,0,0,1,1.435,0,.543.543,0,1,0,1.085,0,1.8,1.8,0,0,0-.516-1.26,1.8,1.8,0,0,0-1.287-3.063Zm0,2.52a.718.718,0,1,1,.718-.718A.718.718,0,0,1,434.23,51.755Z" transform="translate(-372.419 -23.055)"/><path class="a" d="M61.81,23.374a5.247,5.247,0,0,0-5.1,4.066H43.669a1.629,1.629,0,0,0-1.628,1.628v4.152H40.009a1.627,1.627,0,0,0-1.393-.791H24.686a5.237,5.237,0,1,0-7.113,6.849V49.722A1.63,1.63,0,0,0,18.7,51.27v6.9a2.173,2.173,0,0,0,2.17,2.17H32.425v.67a1.629,1.629,0,0,0,1.628,1.628h1.724v4.991H32.048a1.649,1.649,0,1,0,0,3.3H48.982a1.649,1.649,0,1,0,0-3.3H45.255V62.638h1.723a1.629,1.629,0,0,0,1.628-1.628v-.67H60.159a2.173,2.173,0,0,0,2.17-2.17V42.055h.139A1.629,1.629,0,0,0,64.1,40.427v-7.1a5.238,5.238,0,0,0-2.285-9.952ZM15.765,34.6a4.154,4.154,0,1,1,4.154,4.154A4.158,4.158,0,0,1,15.765,34.6ZM19.2,50.264a.543.543,0,0,1-.543-.543V39.68a5.235,5.235,0,0,0,2.8-.077.535.535,0,0,0-.008.079.543.543,0,0,0,.543.543H36.6a.543.543,0,1,0,0-1.085H22.521a5.234,5.234,0,0,0,2.523-5.626H38.616a.543.543,0,0,1,.543.543V49.722a.543.543,0,0,1-.543.543H33.544a.543.543,0,0,0-.514.368l-.913,2.685a.4.4,0,0,1-.75,0l-.913-2.685a.543.543,0,0,0-.514-.368Zm29.781,18.45a.564.564,0,1,1,0,1.128H32.048a.564.564,0,0,1,0-1.128h9.344a.543.543,0,0,0,0-1.085H36.861V62.638H44.17v5.534a.542.542,0,0,0,.542.543Zm-1.462-7.7a.543.543,0,0,1-.543.543H34.052a.543.543,0,0,1-.543-.543v-.67H47.521ZM62.468,40.97H51.245a.543.543,0,0,0-.514.368l-.913,2.685a.4.4,0,0,1-.75,0l-.913-2.685a.543.543,0,0,0-.514-.368H43.669a.543.543,0,0,1-.543-.543V37.082a.543.543,0,0,0-1.085,0v3.345a1.629,1.629,0,0,0,1.628,1.628h3.584l.788,2.317a1.481,1.481,0,0,0,2.8,0l.788-2.317h9.611V58.17a1.086,1.086,0,0,1-1.085,1.085H20.871a1.086,1.086,0,0,1-1.085-1.085V51.35h9.766l.788,2.317a1.481,1.481,0,0,0,2.8,0l.788-2.317h4.683a1.629,1.629,0,0,0,1.628-1.628V34.3h2.34a.543.543,0,0,0,.543-.543V29.067a.543.543,0,0,1,.543-.543H56.574c0,.029,0,.058,0,.088a5.244,5.244,0,0,0,2.929,4.7H45.755a.543.543,0,0,0,0,1.085h14.61a.532.532,0,0,0,.534-.628,5.187,5.187,0,0,0,2.112-.059v6.716A.543.543,0,0,1,62.468,40.97Zm-.658-8.2a4.154,4.154,0,1,1,4.154-4.154A4.158,4.158,0,0,1,61.811,32.766Z" transform="translate(0)"/><path class="a" d="M320.133,277.051h9.585a.968.968,0,0,0,0-1.936h-9.585a.968.968,0,0,0,0,1.936Z" transform="translate(-271.447 -224.426)"/><path class="a" d="M271.968,308.274h14.811a.968.968,0,0,0,0-1.936H271.968a.968.968,0,0,0,0,1.936Z" transform="translate(-228.508 -252.261)"/><circle class="a" cx="0.968" cy="0.968" r="0.968" transform="translate(57.004 47.196)"/><circle class="a" cx="0.968" cy="0.968" r="0.968" transform="translate(53.859 47.196)"/></g></svg>