<svg xmlns="http://www.w3.org/2000/svg" width="80.413" height="90.203" viewBox="0 0 80.413 90.203"><defs><style>.a,.h{fill:#00013c;}.a{opacity:0.11;isolation:isolate;}.b{fill:#00dbff;}.c{fill:#00b9cc;}.d{fill:#007aff;}.e{fill:#8fcaff;}.f{fill:#fff;}.g{fill:#6d0c91;}.i{fill:#689bc1;}.j{fill:#3c0954;}.k{fill:#ea71b3;}.l{fill:#efa0cf;}</style></defs><g transform="translate(-535.825 -170.537)"><path class="a" d="M605.379,235.524h.079a2.062,2.062,0,1,0,0-4.124h-.079l5.295-5.225a1.918,1.918,0,0,0-1.347-3.282H597.75a1.917,1.917,0,0,0-1.347.553l-8.061,7.955H583.31V200.567a4.026,4.026,0,0,0-4.027-4.027H539.852a4.026,4.026,0,0,0-4.027,4.027V277.73a4.026,4.026,0,0,0,4.027,4.027h39.431a4.026,4.026,0,0,0,4.027-4.027V235.524h5.033l8.061,7.954a1.917,1.917,0,0,0,1.347.553h11.577a1.917,1.917,0,0,0,1.347-3.282Z" transform="translate(0 -21.017)"/><path class="b" d="M604.31,179.567V256.73a4.026,4.026,0,0,1-4.027,4.027H560.852a4.026,4.026,0,0,1-4.027-4.027V179.567a4.026,4.026,0,0,1,4.027-4.027h39.431A4.026,4.026,0,0,1,604.31,179.567Z" transform="translate(-16.973 -4.044)"/><path class="c" d="M682.844,367.91h23.321v4.125H682.844Z" transform="translate(-118.828 -159.527)"/><path class="d" d="M604.31,185.932v-6.369a4.027,4.027,0,0,0-4.027-4.027H560.853a4.027,4.027,0,0,0-4.027,4.027v6.369Z" transform="translate(-16.974 -4.041)"/><path class="e" d="M769.806,179.564v6.368h-4.2v-6.368a4.026,4.026,0,0,0-4.027-4.027h4.2A4.026,4.026,0,0,1,769.806,179.564Z" transform="translate(-182.47 -4.041)"/><g transform="translate(545.424 175.83)"><circle class="f" cx="1.072" cy="1.072" r="1.072" transform="translate(0 0)"/><circle class="f" cx="1.072" cy="1.072" r="1.072" transform="translate(3.818 0)"/><circle class="f" cx="1.072" cy="1.072" r="1.072" transform="translate(7.635 0)"/></g><path class="g" d="M599.937,489.177H597.92a.959.959,0,0,1,0-1.917h2.017a.959.959,0,0,1,0,1.917Z" transform="translate(-49.413 -255.991)"/><path class="f" d="M614.149,516.987H584.643a.959.959,0,0,1-.959-.959v-8.7a.959.959,0,0,1,.959-.959h29.506a.959.959,0,0,1,.959.959v8.7A.959.959,0,0,1,614.149,516.987Z" transform="translate(-38.682 -271.436)"/><path class="e" d="M844.708,322.057H827.671l8.644-8.53a1.917,1.917,0,0,1,1.347-.553h11.577a1.918,1.918,0,0,1,1.347,3.282Z" transform="translate(-235.885 -115.126)"/><path class="h" d="M857.68,334.5a.959.959,0,0,1-.673-1.641l4.505-4.446a.959.959,0,1,1,1.347,1.365l-4.505,4.446a.955.955,0,0,1-.673.276Z" transform="translate(-259.364 -127.381)"/><path class="h" d="M884.879,334.5a.959.959,0,0,1-.673-1.641l4.506-4.446a.959.959,0,0,1,1.347,1.365l-4.506,4.446a.955.955,0,0,1-.673.276Z" transform="translate(-281.348 -127.381)"/><path class="e" d="M849.235,384.931H837.659a1.916,1.916,0,0,1-1.348-.552l-6.008-5.927-2.637-2.6H844.7l2.637,2.6,3.242,3.2a1.917,1.917,0,0,1-1.348,3.281Z" transform="translate(-235.882 -165.944)"/><path class="i" d="M847.34,378.452H830.3l-2.637-2.6H844.7Z" transform="translate(-235.882 -165.944)"/><path class="h" d="M862.185,381.228a.955.955,0,0,1-.673-.276l-4.505-4.446a.959.959,0,1,1,1.347-1.365l4.505,4.446a.959.959,0,0,1-.673,1.641Z" transform="translate(-259.364 -165.148)"/><path class="h" d="M889.384,381.228a.955.955,0,0,1-.673-.276l-4.506-4.446a.959.959,0,0,1,1.347-1.365l4.506,4.446a.959.959,0,0,1-.673,1.641Z" transform="translate(-281.348 -165.148)"/><ellipse class="g" cx="18.617" cy="19.386" rx="18.617" ry="19.386" transform="translate(545.398 189.033)"/><path class="j" d="M701.458,369.691a19.846,19.846,0,0,1-.487,4.125H682.845v-4.125Z" transform="translate(-118.829 -160.966)"/><ellipse class="k" cx="11.282" cy="12.483" rx="11.282" ry="12.483" transform="translate(552.734 195.936)"/><path class="l" d="M694.122,369.691a13.487,13.487,0,0,1-.732,4.125H682.845v-4.125Z" transform="translate(-118.829 -160.966)"/><path class="l" d="M666.21,350.154c-1.863,0-3.946-2.386-3.946-5.58s2.083-5.58,3.946-5.58,3.946,2.386,3.946,5.58S668.073,350.154,666.21,350.154Z" transform="translate(-102.194 -136.156)"/><path class="k" d="M686.786,369.691a6.4,6.4,0,0,1-1.647,4.125h-2.293v-4.125Z" transform="translate(-118.829 -160.966)"/><path class="d" d="M728.312,361.466H682.843v-4.124h45.469a2.062,2.062,0,1,1,0,4.124Z" transform="translate(-118.827 -150.985)"/><path class="d" d="M617.194,523.581H597.92a.959.959,0,0,1,0-1.917h19.275a.959.959,0,0,1,0,1.917Z" transform="translate(-49.413 -283.799)"/><path class="d" d="M617.194,541.372H597.92a.959.959,0,0,1,0-1.918h19.275a.959.959,0,0,1,0,1.918Z" transform="translate(-49.413 -298.178)"/><path class="g" d="M671.89,578.284a.959.959,0,0,1-.679-.281l-1.118-1.12a.959.959,0,1,1,1.357-1.355l.439.44.439-.44a.959.959,0,0,1,1.357,1.355L672.569,578A.958.958,0,0,1,671.89,578.284Z" transform="translate(-108.296 -327.107)"/><path class="h" d="M624.132,210.9a3.015,3.015,0,0,0,0-4.969l4.175-4.12a2.876,2.876,0,0,0-2.02-4.924H614.71a2.859,2.859,0,0,0-2.02.829l-7.781,7.678h-3.681V175.522a4.991,4.991,0,0,0-4.985-4.985h-39.43a4.991,4.991,0,0,0-4.985,4.985v61.647a.959.959,0,0,0,1.917,0V182.85H599.31V205.4h-21.4v-2.559a.959.959,0,0,0-1.917,0V214a.959.959,0,0,0,1.917,0v-6.683h44.51a1.1,1.1,0,1,1,0,2.206H582.261a.959.959,0,0,0,0,1.917H599.31v41.248a3.072,3.072,0,0,1-3.068,3.068H556.811a3.072,3.072,0,0,1-3.068-3.068v-10.13a.959.959,0,0,0-1.917,0v10.13a4.991,4.991,0,0,0,4.985,4.985h39.431a4.991,4.991,0,0,0,4.985-4.985V211.439h3.681l7.781,7.678a2.859,2.859,0,0,0,2.02.829h11.577a2.876,2.876,0,0,0,2.02-4.924Zm-70.388-29.971v-5.41a3.072,3.072,0,0,1,3.068-3.068h39.431a3.072,3.072,0,0,1,3.068,3.068v5.41Zm60.293,18.152a.953.953,0,0,1,.674-.276h11.577a.959.959,0,0,1,.673,1.641l-5.015,4.948H607.638Zm13.138,18.349a.94.94,0,0,1-.887.595H614.71a.954.954,0,0,1-.674-.276l-6.4-6.313h14.307l5.015,4.948a.94.94,0,0,1,.214,1.046Z" transform="translate(-12.933)"/><path class="j" d="M678.8,267.449a.959.959,0,0,1-.959-.959V255.9a.959.959,0,0,1,1.917,0V266.49A.959.959,0,0,1,678.8,267.449Z" transform="translate(-114.786 -68.221)"/><path class="j" d="M678.8,428.532a.959.959,0,0,1-.959-.959V416.985a.959.959,0,0,1,1.917,0v10.588A.959.959,0,0,1,678.8,428.532Z" transform="translate(-114.786 -198.417)"/><path class="b" d="M747.045,324.791a.959.959,0,0,1-.959-.959v-.671a.959.959,0,1,1,1.917,0v.671A.959.959,0,0,1,747.045,324.791Z" transform="translate(-169.944 -122.583)"/><path class="b" d="M725.193,297.706a.959.959,0,0,1-.959-.959v-.671a.959.959,0,0,1,1.917,0v.671A.959.959,0,0,1,725.193,297.706Z" transform="translate(-152.282 -100.692)"/><path class="b" d="M747.045,402.708a.959.959,0,0,1-.959-.959v-.671a.959.959,0,1,1,1.917,0v.671A.959.959,0,0,1,747.045,402.708Z" transform="translate(-169.944 -185.56)"/><path class="b" d="M725.193,429.792a.959.959,0,0,1-.959-.959v-.671a.959.959,0,1,1,1.917,0v.671A.959.959,0,0,1,725.193,429.792Z" transform="translate(-152.282 -207.451)"/><path class="b" d="M610.562,324.791a.959.959,0,0,1-.959-.959v-.671a.959.959,0,1,1,1.917,0v.671A.959.959,0,0,1,610.562,324.791Z" transform="translate(-59.631 -122.583)"/><path class="b" d="M632.414,297.706a.959.959,0,0,1-.959-.959v-.671a.959.959,0,0,1,1.917,0v.671A.959.959,0,0,1,632.414,297.706Z" transform="translate(-77.293 -100.692)"/><path class="b" d="M610.562,402.708a.959.959,0,0,1-.959-.959v-.671a.959.959,0,0,1,1.917,0v.671A.959.959,0,0,1,610.562,402.708Z" transform="translate(-59.631 -185.56)"/><path class="b" d="M632.414,429.792a.959.959,0,0,1-.959-.959v-.671a.959.959,0,1,1,1.917,0v.671A.959.959,0,0,1,632.414,429.792Z" transform="translate(-77.293 -207.451)"/></g></svg>