<svg xmlns="http://www.w3.org/2000/svg" width="114.5" height="92.404" viewBox="0 0 114.5 92.404"><defs><style>.a,.e{fill:#00013c;}.a{opacity:0.11;isolation:isolate;}.b{fill:#d2fdff;}.c{fill:#00dbff;}.d{fill:#007aff;}.f{fill:#6d0c91;}.g{fill:#fff;}</style></defs><g transform="translate(-664.784 212.279)"><path class="a" d="M787.289-184.84H696.742a3.751,3.751,0,0,0-3.751,3.751v52.5a3.751,3.751,0,0,0,3.751,3.751H724.62v2.8a2.5,2.5,0,0,0,2.5,2.5h5.222v14H722.5a2.55,2.55,0,0,0-2.55,2.55,2.55,2.55,0,0,0,2.55,2.55h39.027a2.55,2.55,0,0,0,2.55-2.55,2.55,2.55,0,0,0-2.55-2.55h-9.841v-14h5.222a2.5,2.5,0,0,0,2.5-2.5v-2.8h27.878a3.751,3.751,0,0,0,3.751-3.751v-52.5A3.751,3.751,0,0,0,787.289-184.84Z" transform="translate(-19.981 -19.437)"/><path class="b" d="M827.929-9.574h19.345V15.2H827.929Z" transform="translate(-115.568 -143.591)"/><path class="c" d="M827.929-9.574h19.345V1.941H827.929Z" transform="translate(-115.568 -143.591)"/><path class="d" d="M833.737-3.912h-29.79a2.5,2.5,0,0,1-2.5-2.5v-5.663h34.791v5.663A2.5,2.5,0,0,1,833.737-3.912Z" transform="translate(-96.808 -141.818)"/><path class="b" d="M787.289-147.99H696.742a3.751,3.751,0,0,1-3.751-3.751v-52.5a3.751,3.751,0,0,1,3.751-3.751h90.547a3.751,3.751,0,0,1,3.751,3.751v52.5A3.751,3.751,0,0,1,787.289-147.99Z" transform="translate(-19.981 -3.037)"/><g transform="translate(673.011 -211.029)"><path class="c" d="M791.041-204.243v46.15H692.994v-46.15a3.751,3.751,0,0,1,3.751-3.751H787.29A3.751,3.751,0,0,1,791.041-204.243Z" transform="translate(-692.994 207.994)"/></g><path class="d" d="M692.994-153.852h98.047v20.923H692.994Z" transform="translate(-19.983 -41.388)"/><path class="d" d="M825.517,67.089H786.49a2.55,2.55,0,0,1,0-5.1h39.027a2.55,2.55,0,0,1,0,5.1Z" transform="translate(-84.407 -194.285)"/><g transform="translate(666.034 -200.292)"><path class="b" d="M779.821-150.249h-109.5a1.251,1.251,0,0,1-1.25-1.251v-18.424a1.251,1.251,0,0,1,1.25-1.25h109.5a1.25,1.25,0,0,1,1.25,1.25V-151.5A1.25,1.25,0,0,1,779.821-150.249Z" transform="translate(-669.072 171.174)"/><path class="c" d="M1001.046-150.249H981.372v-20.925h19.674a1.25,1.25,0,0,1,1.25,1.25V-151.5A1.251,1.251,0,0,1,1001.046-150.249Z" transform="translate(-890.297 171.174)"/></g><path class="e" d="M776.784-201.542h-4.475v-5.736a5.007,5.007,0,0,0-5-5H676.761a5.007,5.007,0,0,0-5,5v5.736h-4.475a2.5,2.5,0,0,0-2.5,2.5v18.424a2.5,2.5,0,0,0,2.5,2.5h4.475v23.34a5.007,5.007,0,0,0,5,5h26.628v1.545a3.755,3.755,0,0,0,3.751,3.751h3.972v11.5h-8.591a3.8,3.8,0,0,0-3.8,3.8,3.8,3.8,0,0,0,3.8,3.8h39.027a3.8,3.8,0,0,0,3.8-3.8,3.8,3.8,0,0,0-3.8-3.8h-8.59v-11.5h3.972a3.755,3.755,0,0,0,3.751-3.751v-1.545h26.628a5.007,5.007,0,0,0,5-5v-16.892a1.25,1.25,0,0,0-1.25-1.25,1.25,1.25,0,0,0-1.25,1.25v16.892a2.5,2.5,0,0,1-2.5,2.5H676.761a2.5,2.5,0,0,1-2.5-2.5v-23.34H776.783a2.5,2.5,0,0,0,2.5-2.5v-18.424A2.5,2.5,0,0,0,776.784-201.542Zm-35.236,71.066a1.3,1.3,0,0,1,1.3,1.3,1.3,1.3,0,0,1-1.3,1.3H702.521a1.3,1.3,0,0,1-1.3-1.3,1.3,1.3,0,0,1,1.3-1.3Zm-11.091-2.5H713.612v-11.5h16.844Zm-24.567-16.8h32.29v1.545h0a1.252,1.252,0,0,1-1.25,1.25h-29.79a1.252,1.252,0,0,1-1.25-1.25Zm70.894-30.842h-109.5v-18.424h18.5a1.251,1.251,0,0,0,1.25-1.251,1.25,1.25,0,0,0-1.25-1.25H674.26v-5.736a2.5,2.5,0,0,1,2.5-2.5h90.547a2.5,2.5,0,0,1,2.5,2.5v5.736H693.435a1.25,1.25,0,0,0-1.25,1.25,1.251,1.251,0,0,0,1.25,1.251h83.349Z" transform="translate(0 0)"/><path class="e" d="M1002.419-153.277a4.33,4.33,0,0,0-.752,5.1l-2.488,2.488a1.251,1.251,0,0,0,0,1.768,1.248,1.248,0,0,0,.884.366,1.247,1.247,0,0,0,.884-.366l2.486-2.486a4.3,4.3,0,0,0,2.044.512,4.3,4.3,0,0,0,3.058-1.267h0a4.3,4.3,0,0,0,1.266-3.058,4.3,4.3,0,0,0-1.266-3.057,4.294,4.294,0,0,0-3.058-1.267,4.3,4.3,0,0,0-3.058,1.267Zm4.881,3.057a1.812,1.812,0,0,1-.534,1.29h0a1.812,1.812,0,0,1-1.289.534,1.813,1.813,0,0,1-1.289-.534,1.826,1.826,0,0,1,0-2.579,1.813,1.813,0,0,1,1.289-.534,1.811,1.811,0,0,1,1.289.534A1.813,1.813,0,0,1,1007.3-150.22Z" transform="translate(-236.617 -40.898)"/><g transform="translate(676.141 -194.823)"><path class="f" d="M705.388-141.978h-.41a1.25,1.25,0,0,1-1.25-1.25v-7.943a1.25,1.25,0,0,1,1.25-1.25h.41a1.251,1.251,0,0,1,1.251,1.25v7.943A1.25,1.25,0,0,1,705.388-141.978Z" transform="translate(-703.727 152.421)"/><path class="f" d="M725.284-141.978h-.411a1.25,1.25,0,0,1-1.25-1.25v-7.943a1.251,1.251,0,0,1,1.25-1.25h.411a1.25,1.25,0,0,1,1.25,1.25v7.943A1.25,1.25,0,0,1,725.284-141.978Z" transform="translate(-717.821 152.421)"/><path class="f" d="M745.181-141.978h-.41a1.251,1.251,0,0,1-1.251-1.25v-7.943a1.251,1.251,0,0,1,1.251-1.25h.41a1.25,1.25,0,0,1,1.25,1.25v7.943A1.25,1.25,0,0,1,745.181-141.978Z" transform="translate(-731.915 152.421)"/><path class="f" d="M765.078-141.978h-.41a1.25,1.25,0,0,1-1.25-1.25v-7.943a1.25,1.25,0,0,1,1.25-1.25h.41a1.25,1.25,0,0,1,1.25,1.25v7.943A1.25,1.25,0,0,1,765.078-141.978Z" transform="translate(-746.01 152.421)"/><path class="f" d="M784.974-141.978h-.41a1.25,1.25,0,0,1-1.25-1.25v-7.943a1.25,1.25,0,0,1,1.25-1.25h.41a1.25,1.25,0,0,1,1.25,1.25v7.943A1.25,1.25,0,0,1,784.974-141.978Z" transform="translate(-760.104 152.421)"/><path class="f" d="M846.882-141.978H804.461a1.251,1.251,0,0,1-1.251-1.25v-7.943a1.251,1.251,0,0,1,1.251-1.25h42.422a1.25,1.25,0,0,1,1.25,1.25v7.943A1.25,1.25,0,0,1,846.882-141.978Z" transform="translate(-774.198 152.421)"/></g><g transform="translate(681.051 -168.771)"><path class="g" d="M765.7-60.587H721.813a1.25,1.25,0,0,1-1.25-1.25,1.25,1.25,0,0,1,1.25-1.251h43.892a1.25,1.25,0,0,1,1.251,1.251A1.251,1.251,0,0,1,765.7-60.587Z" transform="translate(-720.563 63.088)"/><g transform="translate(75.403 0)"><circle class="g" cx="1.25" cy="1.25" r="1.25"/><circle class="g" cx="1.25" cy="1.25" r="1.25" transform="translate(4.064)"/></g></g></g></svg>